<?xml version="1.0" encoding="UTF-8" standalone="no"?>
<svg width="128px" height="51px" viewBox="0 0 128 51" version="1.1" xmlns="http://www.w3.org/2000/svg" xmlns:xlink="http://www.w3.org/1999/xlink">
    <!-- Generator: sketchtool 41.2 (35397) - http://www.bohemiancoding.com/sketch -->
    <title>8539F711-B0C5-4CC6-83E7-8FAA8101BA8A</title>
    <desc>Created with sketchtool.</desc>
    <defs></defs>
    <g id="Symbols" stroke="none" stroke-width="1" fill="none" fill-rule="evenodd">
        <g id="header" transform="translate(-172.000000, -32.000000)">
            <g id="logotype">
                <g transform="translate(172.000000, 32.000000)">
                    <g id="dave-logo2">
                        <g id="Group-3" transform="translate(41.246807, 15.005780)" fill="#5DDA5B">
                            <path d="M23.8028238,13.0047309 C23.7056534,13.3354725 23.6087361,13.6659605 23.5178919,13.996702 C21.3409208,20.7078402 14.151324,28.867398 9.32671282,26.2488376 C3.03088117,22.8283875 13.6067649,4.42369941 21.262476,6.25684375 C24.1079996,6.93860212 24.638641,9.71024134 23.8028238,13.0047309 M79.4510927,5.10545778 C82.168574,8.03625844 77.519325,13.8687139 70.8375953,14.5030787 C70.0349274,14.5775906 67.6534937,14.6148465 67.5937744,14.6064829 C71.617742,2.80522026 78.3098467,3.87373077 79.4510927,5.10545778 M85.0247256,18.2915263 C83.838184,17.7542298 82.5483989,18.4983348 81.7581303,19.7381719 C77.9694972,25.7982182 73.324297,27.1333494 70.259887,26.5585435 C67.8701027,26.110205 66.9500205,24.4795606 66.6238418,23.0101052 C66.3371385,21.7327587 66.5021257,20.5775711 66.5372994,20.4308283 C75.6272859,20.4308283 83.6152488,14.7035511 84.7357449,8.44962197 C85.3797518,4.80994468 83.7493642,1.32765472 78.9783992,0.389159841 C73.0024201,-0.791118492 68.3635461,2.62553004 65.1546457,7.21992249 C63.8175406,9.13771638 62.7134926,11.2374815 61.9624465,13.2465144 C60.8480236,12.6222873 59.9317371,11.7894776 59.1682916,10.8284264 C60.6567193,2.56140927 56.6696967,0.0120384842 53.7275088,0.481666088 C51.3334227,0.863349397 49.0876226,5.39362108 53.5840307,12.3620026 C53.1756114,13.71158 52.6515492,15.148088 52.0386672,16.5681223 L52.0386672,16.5698964 C49.8017238,21.763932 46.411388,26.765352 43.4087217,26.765352 C41.6444718,26.765352 39.632488,22.1172299 45.4723273,6.44084248 C46.3326902,4.13426891 45.8521522,2.29073346 43.7057999,1.92679107 C41.8299559,1.60846821 40.8850751,2.53859951 40.140102,4.57855234 C38.6377567,8.68532282 37.3727703,12.4674344 36.4792581,15.8465735 C33.7863224,21.5860159 29.995665,27.1500766 28.0370742,26.765352 C26.4441377,26.4513376 27.0590441,19.2834974 31.8649298,8.32138043 C32.2531052,7.43686865 32.5461347,6.64308901 32.8123411,6.02114291 C33.4993661,4.40469128 34.1246475,2.53023593 31.9147802,1.53192879 C29.5558677,0.792132259 28.4581459,2.38754822 27.6058806,3.86739472 C27.4593659,4.1238778 27.317153,4.38619003 27.1767114,4.64647473 C26.4173147,3.87778584 25.4081596,3.18766389 24.0794051,2.5943567 C13.5839906,-0.648430774 3.60049199,10.4295091 0.975626162,19.583319 C-0.266839006,23.9072891 -0.314158963,28.0508086 1.40074663,30.8845411 C3.04935367,33.6085333 6.02291949,35.0594874 10.6660953,34.365057 C14.330988,33.8150883 17.971082,31.3952263 21.0046202,28.1253205 C21.1035619,31.409419 22.2944053,34.0756264 25.7548353,34.0756264 C29.9232933,34.0756264 32.9937764,31.2545661 35.311189,27.8194163 C36.0622352,31.9862525 38.3654772,34.0259519 41.1426778,34.0259519 C47.9610534,34.0259519 52.6080249,27.9268756 55.5135209,21.755315 C56.1883996,20.3274241 56.7681323,18.8972521 57.2595513,17.5372836 C58.1631854,18.3723742 59.1824623,19.0726339 60.3318058,19.5916826 C60.1174743,21.0302181 60.0266301,22.330121 60.0390294,23.5040632 C60.1506236,34.1397472 68.7286942,34.5014086 69.9605313,34.5363836 C76.5473681,34.7244374 82.8229559,29.6920976 85.7203543,22.0057155 C86.1803954,20.7841261 86.2112672,18.8270488 85.0247256,18.2915263" id="Fill-1"></path>
                        </g>
                        <path d="M94.8309389,27.3677577 C94.8309389,27.3677577 96.6986854,30.5527605 98.5062065,32.5430387 C98.0150406,33.9030073 97.4353078,35.3331792 96.7604291,36.7610701 C94.6472261,35.3103694 93.7020922,33.2683891 93.2855754,31.5759049 L93.2855754,31.5738774 C93.8982043,30.1538431 94.4225196,28.7173352 94.8309389,27.3677577" id="Fill-4" fill-opacity="0.199999988" fill="#3E923D"></path>
                        <path d="M107.870573,38.015759 C106.593187,38.4435687 104.17076,39.0160936 101.286014,38.509717 C101.273614,37.3357747 101.364205,36.0358718 101.57879,34.5975898 C101.57879,34.5975898 104.738093,35.6493731 107.78403,35.436482 C107.74911,35.5832248 107.58387,36.7386659 107.870573,38.015759" id="Fill-6" fill-opacity="0.199999988" fill="#3E923D"></path>
                        <path d="M37.9851209,15.0201253 C37.1753676,28.4424015 24.4799547,43.3348935 14.0720947,42.0370182 C9.79052431,41.502256 13.1434089,29.6690597 19.6568618,13.3347375 C19.8921963,12.7467526 20.1300613,12.1511644 20.3729873,11.5505074 C20.9954851,10.009328 21.6432877,8.4331736 22.3163952,6.82381834 C22.7440461,6.70723513 23.1641056,6.60078958 23.5816346,6.51208496 C32.073922,4.63408143 38.4102413,7.95416865 37.9851209,15.0201253 M31.413467,0.267279693 C29.1132616,-0.110348548 26.4360149,-0.0850043704 23.5816346,0.325571301 C19.5227464,0.908487377 15.1095911,2.26921625 10.9292398,4.36796757 C7.2904111,6.19021391 3.8261854,8.57256657 0.92119556,11.4820781 C-0.306086735,12.7115242 -0.308617214,14.7464081 0.923726039,16.1378035 C0.936378434,16.15301 0.949030828,16.1682165 0.961683223,16.1808886 C2.31295899,17.7040736 4.65365202,18.0132726 6.02517162,16.692841 C7.64467815,15.1313862 9.286959,13.7529164 10.9292398,12.5516024 C12.6778008,11.2663992 14.4238313,10.1844562 16.139496,9.29006023 C15.4663886,10.5037929 14.7502631,11.8799817 14.0240156,13.3347375 C13.4192311,14.5436547 12.8093857,15.8108636 12.2121927,17.0856757 C10.5243632,20.6921521 8.94281386,24.3721267 7.92303084,27.0586094 C2.21173983,42.0877065 3.12524273,47.2908661 6.64260848,49.3234691 C7.89013461,50.0457782 10.2105838,50.4563539 11.7971941,50.4842325 C23.7182805,50.6945891 37.5144518,41.0638018 42.6310802,24.0679965 C45.5512529,14.3662455 43.8077529,2.29734829 31.413467,0.267279693" id="Fill-8" fill="#5DDA5B"></path>
                        <path d="M22.3163952,6.82386903 C21.6432877,8.43322428 20.6396998,10.893637 20.017202,12.434563 C17.724588,13.7980797 14.3150207,15.2482735 12.2121927,17.0857264 C12.8093857,15.8109143 13.4192311,14.5437054 14.0237626,13.3345347 C14.7502631,11.8800324 15.4663886,10.5038436 16.139496,9.28985747 C16.139496,9.28985747 20.5374684,7.24179451 22.3163952,6.82386903" id="Fill-10" fill-opacity="0.199999988" fill="#3E923D"></path>
                    </g>
                </g>
            </g>
        </g>
    </g>
</svg>